<?xml version="1.0" encoding="utf-8"?>
<!DOCTYPE svg PUBLIC "-//W3C//DTD SVG 1.1//EN" "http://www.w3.org/Graphics/SVG/1.1/DTD/svg11.dtd" [
	<!ENTITY ns_svg "http://www.w3.org/2000/svg">
	<!ENTITY ns_xlink "http://www.w3.org/1999/xlink">
]>
<svg  version="1.1" xmlns="&ns_svg;" xmlns:xlink="&ns_xlink;" width="128" height="128" viewBox="0 0 128 128"
	 style="overflow:visible;enable-background:new 0 0 128 128;" xml:space="preserve">
<path style="opacity:0.3;fill-rule:evenodd;clip-rule:evenodd;fill:#4D4D4D;" d="M128,92.5c0,1.375-1.35,2.5-3,2.5H3
	c-1.65,0-3-1.125-3-2.5S1.35,90,3,90h122C126.65,90,128,91.125,128,92.5z"/>
<path style="opacity:0.3;fill-rule:evenodd;clip-rule:evenodd;fill:#1A1A1A;" d="M128,92c0,1.1-0.9,2-2,2H2c-1.1,0-2-0.9-2-2l0,0
	c0-1.1,0.9-2,2-2h124C127.1,90,128,90.9,128,92L128,92z"/>
<path style="opacity:0.6;fill-rule:evenodd;clip-rule:evenodd;fill:#343434;" d="M7,52c-1.602,0-3.035,1.297-3.194,2.891L0.005,89.9
	C0,92.99,1.951,92.99,3,92.99h122c1.049,0,3,0,3-2.99c-0.005-0.1-3.806-35.109-3.806-35.109C124.035,53.297,122.602,52,121,52H7z"/>
<path style="fill-rule:evenodd;clip-rule:evenodd;fill:#E3E5E2;" d="M127,90c0,1.99-0.9,1.99-2,1.99H4c-1.1,0-2,0-2-1.99
	l3.801-35.01C5.91,53.896,6.9,53,8,53h113c1.1,0,2.09,0.896,2.199,1.99L127,90z"/>
<linearGradient id="XMLID_4_" gradientUnits="userSpaceOnUse" x1="-10.5547" y1="72.4951" x2="124.9491" y2="72.4951">
	<stop  offset="0" style="stop-color:#CFD1CB"/>
	<stop  offset="0.0459" style="stop-color:#D7D8D4"/>
	<stop  offset="0.1991" style="stop-color:#EDEDEC"/>
	<stop  offset="0.3412" style="stop-color:#FAFAFA"/>
	<stop  offset="0.4607" style="stop-color:#FFFEFF"/>
	<stop  offset="0.5999" style="stop-color:#FAFAFA"/>
	<stop  offset="0.7687" style="stop-color:#EDEDEB"/>
	<stop  offset="0.9521" style="stop-color:#D6D8D3"/>
	<stop  offset="1" style="stop-color:#CFD1CB"/>
</linearGradient>
<path style="fill-rule:evenodd;clip-rule:evenodd;fill:url(#XMLID_4_);" d="M126,90c0,1.99-0.9,1.99-2,1.99H3c-1.1,0-2,0-2-1.99
	l3.801-35.01C4.91,53.896,5.9,53,7,53h113c1.1,0,2.09,0.896,2.199,1.99L126,90z"/>
<polygon style="fill-rule:evenodd;clip-rule:evenodd;fill:#FFFFFF;" points="120.398,54 7,54 6.794,53 121,53 "/>
<polygon style="fill-rule:evenodd;clip-rule:evenodd;fill:#8E8E8E;" points="2.398,90 125.602,90 126,92 2,92 "/>
<linearGradient id="wire3sh_1_" gradientUnits="userSpaceOnUse" x1="60.5171" y1="-376.6445" x2="110.1091" y2="-376.6445" gradientTransform="matrix(1 0 0 -1 0 -333.9199)">
	<stop  offset="0" style="stop-color:#303131"/>
	<stop  offset="1" style="stop-color:#303131;stop-opacity:0"/>
</linearGradient>
<path id="wire3sh" style="opacity:0.2;fill:url(#wire3sh_1_);" d="M113.552,51.576c-0.973-7.745-5.89-14.989-14.546-14.989
	c-4.972,0-9.083,1.688-12.791,4.853c-3.647,3.113-7.42,5.062-12.679,5.062c-8.113,0-15.562-10.277-15.562-10.277
	s8.771,8.348,15.562,8.348c4.282,0,7.544-1.754,10.997-4.701c3.891-3.321,8.523-5.997,14.473-5.997c10.47,0,16.015,8.928,17,17.702
	C115.442,51.576,114.734,51.576,113.552,51.576z"/>
<linearGradient id="wire2_1_" gradientUnits="userSpaceOnUse" x1="60.5239" y1="-376.9639" x2="110.2527" y2="-376.9639" gradientTransform="matrix(1 0 0 -1 0 -333.9199)">
	<stop  offset="0" style="stop-color:#303131"/>
	<stop  offset="1" style="stop-color:#303131;stop-opacity:0"/>
</linearGradient>
<path id="wire2" style="fill:url(#wire2_1_);" d="M114.88,53h-1.148c0-8.008-5.005-17.741-14.726-17.741
	c-4.972,0-9.083,1.688-12.791,4.853c-3.647,3.113-7.42,5.061-12.679,5.061c-8.113,0-15.562-8.948-15.562-8.948
	s8.771,7.252,15.562,7.252c4.282,0,7.544-1.987,10.997-4.934c3.891-3.321,8.523-5.454,14.473-5.454
	c11.606,0,17.16,10.954,17.16,19.912H114.88z"/>
<linearGradient id="wire1_1_" gradientUnits="userSpaceOnUse" x1="60.3335" y1="-376.9321" x2="110.2555" y2="-376.9321" gradientTransform="matrix(1 0 0 -1 0 -333.9199)">
	<stop  offset="0" style="stop-color:#464747"/>
	<stop  offset="1" style="stop-color:#414242;stop-opacity:0"/>
</linearGradient>
<path id="wire1" style="fill:url(#wire1_1_);" d="M114.32,52.157c-0.215-8.579-5.515-17.741-15.314-17.741
	c-5.118,0-9.375,1.729-13.211,5.002c-3.79,3.234-7.327,4.911-12.259,4.911c-3.363,0-8.275-1.657-10.488-3.522
	c2.439,1.556,7.44,2.912,10.488,2.912c4.311,0,7.512-1.74,10.898-4.641l0.519-0.444c3.745-3.195,8.227-5.304,14.053-5.304
	c11.064,0,16.324,10.105,16.532,18.827C115.538,52.867,114.32,52.88,114.32,52.157z"/>
<path style="fill:#F3F5F2;" d="M120.386,67.079h-4.489l0.232,2.948h4.51L120.386,67.079z M114.576,67.079h-4.489l0.207,2.948h4.509
	L114.576,67.079z M104.276,67.079l0.181,2.948h4.51l-0.2-2.948H104.276z M102.957,67.079h-4.489l0.154,2.948h4.51L102.957,67.079z
	 M120.719,70.965h-4.516l0.235,2.984h0.067l0.375,3.699h4.53L120.719,70.965z M114.876,70.965h-4.516l0.208,2.984h4.536
	L114.876,70.965z M109.234,73.949l-0.203-2.984h-4.517l0.183,2.984H109.234z M103.187,70.965h-4.516l0.157,2.984h4.535
	L103.187,70.965z M115.178,74.898h-4.542l0.211,3.02h4.564L115.178,74.898z M109.504,77.918l-0.205-3.02h-4.543l0.185,3.02H109.504z
	 M103.421,74.898h-4.545l0.159,3.02h4.563L103.421,74.898z M115.484,78.879h-4.57l0.215,3.056h4.592L115.484,78.879z
	 M109.779,81.935l-0.21-3.056H105l0.187,3.056H109.779z M103.656,78.879h-4.57l0.16,3.056h4.591L103.656,78.879z M121.566,79.099
	h-4.604l0.237,3.808h-0.053L117.392,86h4.618L121.566,79.099z M111.197,82.906L111.414,86h4.619l-0.238-3.094H111.197z
	 M99.297,82.906L99.358,86h10.659l-0.278-3.094H99.297z M13.804,62.059H8.702l-0.133,2.01h5.115L13.804,62.059z M93.937,64.068
	l-0.07-2.01H88.72l0.057,2.01H93.937z M87.498,64.068l-0.056-2.01h-5.147l0.044,2.01H87.498z M81.059,64.068l-0.041-2.01H75.87
	l0.028,2.01H81.059z M74.62,64.068l-0.024-2.01h-5.146l0.012,2.01H74.62z M68.172,62.059h-5.147l-0.002,2.01h5.159L68.172,62.059z
	 M61.748,62.059h-5.147l-0.018,2.01h5.159L61.748,62.059z M55.324,62.059h-5.146l-0.033,2.01h5.16L55.324,62.059z M48.9,62.059
	h-5.147l-0.048,2.01h5.16L48.9,62.059z M42.479,62.059h-5.149l-0.062,2.01h5.158L42.479,62.059z M36.055,62.059h-5.149l-0.077,2.01
	h5.16L36.055,62.059z M29.631,62.059h-5.148l-0.094,2.01h5.16L29.631,62.059z M23.208,62.059H18.06l-0.109,2.01h5.16L23.208,62.059z
	 M115.487,64.068h4.778l-0.132-2.01h-4.769L115.487,64.068z M109.612,64.068h4.778l-0.118-2.01h-4.769L109.612,64.068z
	 M108.515,64.068l-0.105-2.01h-4.767l0.094,2.01H108.515z M118.962,58.737l-0.124-2.017h-4.56l0.113,2.017H118.962z M110.945,58.737
	l-0.111-2.017h-4.56l0.101,2.017H110.945z M102.426,58.737l-0.098-2.017h-4.56l0.087,2.017H102.426z M102.548,62.059h-4.769
	l0.081,2.01h4.779L102.548,62.059z M80.812,71.083l0.073,2.996h4.521l-0.095-2.996H80.812z M79.557,74.079l-0.07-2.996H74.99
	l0.046,2.996H79.557z M73.707,74.079l-0.042-2.996h-4.499l0.021,2.996H73.707z M63.339,74.079h4.519l-0.016-2.996h-4.499
	L63.339,74.079z M57.489,74.079h4.52l0.011-2.996h-4.5L57.489,74.079z M51.641,74.079h4.519l0.038-2.996h-4.5L51.641,74.079z
	 M45.792,74.079h4.52l0.062-2.996h-4.499L45.792,74.079z M44.551,71.083h-4.499l-0.109,2.996h4.519L44.551,71.083z M34.093,74.079
	h4.52l0.116-2.996h-4.5L34.093,74.079z M28.245,74.079h4.519l0.142-2.996h-4.497L28.245,74.079z M27.084,71.083h-4.501l-0.188,2.996
	h4.521L27.084,71.083z M21.26,71.083h-4.497l-0.215,2.996h4.518L21.26,71.083z M15.041,71.083H7.959L7.627,73.99h7.197
	L15.041,71.083z M86.396,78.035l-0.104-2.959h-4.529l0.082,2.959H86.396z M80.506,78.035l-0.075-2.959h-4.531l0.055,2.959H80.506z
	 M74.566,75.076h-4.529l0.028,2.959h4.55L74.566,75.076z M68.704,75.076h-4.531l0.003,2.959h4.55L68.704,75.076z M62.839,75.076
	H58.31l-0.026,2.959h4.551L62.839,75.076z M56.977,75.076h-4.528l-0.053,2.959h4.55L56.977,75.076z M51.114,75.076h-4.529
	l-0.079,2.959h4.55L51.114,75.076z M45.253,75.076h-4.531l-0.106,2.959h4.551L45.253,75.076z M39.39,75.076h-4.532l-0.133,2.959
	h4.552L39.39,75.076z M33.525,75.076h-4.53l-0.16,2.959h4.552L33.525,75.076z M27.662,75.076h-4.53l-0.187,2.959h4.551
	L27.662,75.076z M21.799,75.076h-4.53l-0.213,2.959h4.552L21.799,75.076z M15.662,75.191H7.398l-0.251,2.872h8.3L15.662,75.191z
	 M73.472,79.059l0.044,2.95h4.572l-0.063-2.95H73.472z M72.17,82.009l-0.038-2.95h-4.553l0.017,2.95H72.17z M66.241,79.059h-4.553
	l-0.012,2.95h4.574L66.241,79.059z M60.348,79.059h-4.553l-0.039,2.95h4.574L60.348,79.059z M54.455,79.059h-4.553l-0.064,2.95
	h4.572L54.455,79.059z M48.564,79.059h-4.553l-0.095,2.95h4.575L48.564,79.059z M42.672,79.059h-4.554L38,82.009h4.574
	L42.672,79.059z M36.779,79.059h-4.553l-0.146,2.95h4.574L36.779,79.059z M30.889,79.059h-4.555l-0.174,2.95h4.575L30.889,79.059z
	 M24.995,79.059h-4.553l-0.202,2.95h4.575L24.995,79.059z M19.104,79.059h-4.553l-0.229,2.95h4.574L19.104,79.059z M12.934,79.174
	H7.309l-0.255,2.863h5.651L12.934,79.174z M79.836,82.037H94.6l-0.136-2.863H79.766L79.836,82.037z M77.743,70.083h4.49l-0.08-3.004
	h-4.47L77.743,70.083z M76.371,67.079h-4.47l0.034,3.004h4.488L76.371,67.079z M66.119,67.079l0.008,3.004h4.488l-0.028-3.004
	H66.119z M60.337,67.079l-0.018,3.004h4.489l-0.003-3.004H60.337z M54.511,70.083h4.487l0.024-3.004h-4.469L54.511,70.083z
	 M48.701,70.083h4.488l0.051-3.004h-4.469L48.701,70.083z M47.455,67.079h-4.467l-0.096,3.004h4.487L47.455,67.079z M41.675,67.079
	h-4.47l-0.122,3.004h4.489L41.675,67.079z M31.275,70.083h4.487l0.128-3.004h-4.468L31.275,70.083z M25.466,70.083h4.49l0.153-3.004
	h-4.469L25.466,70.083z M19.658,70.083h4.488l0.179-3.004h-4.468L19.658,70.083z M18.543,67.079h-4.468l-0.226,3.004h4.487
	L18.543,67.079z M12.76,67.079H8.394l-0.252,3.004h4.387L12.76,67.079z M83.891,70.083h10.425l-0.027-2.916H83.802L83.891,70.083z
	 M86.742,71.187l0.104,2.446h1.065l0.138,4.609h6.372l-0.209-7.056H86.742z M6.628,86h7.186l0.231-2.971h-7.16L6.628,86z M15.326,86
	h7.807l0.189-2.971h-7.778L15.326,86z M69.936,83.029L69.966,86h7.018l-0.058-2.971H69.936z M78.785,83.029L78.853,86h7.64
	l-0.096-2.971H78.785z M88.066,83.029L88.172,86h6.795l-0.136-2.971H88.066z M24.88,83.029L24.703,86h43.354l-0.016-2.971H24.88z"/>
<linearGradient id="XMLID_1_" gradientUnits="userSpaceOnUse" x1="6.6074" y1="70.7549" x2="122.0303" y2="70.7549">
	<stop  offset="0" style="stop-color:#121212"/>
	<stop  offset="0.3933" style="stop-color:#121212"/>
	<stop  offset="0.6845" style="stop-color:#0D0D0D"/>
	<stop  offset="1" style="stop-color:#000000"/>
</linearGradient>
<path style="fill:url(#XMLID_1_);" d="M120.404,65.977h-4.49l0.233,2.95h4.51L120.404,65.977z M114.594,65.977h-4.49l0.206,2.95
	h4.512L114.594,65.977z M104.29,65.977l0.181,2.95h4.512l-0.201-2.95H104.29z M102.971,65.977h-4.491l0.155,2.95h4.511
	L102.971,65.977z M120.738,69.865h-4.517l0.234,2.986h0.023l0.319,3.701h4.532L120.738,69.865z M114.894,69.865h-4.518l0.208,2.986
	h4.539L114.894,69.865z M109.249,72.852l-0.202-2.986h-4.518l0.183,2.986H109.249z M103.2,69.865h-4.518l0.157,2.986h4.536
	L103.2,69.865z M115.196,73.801h-4.545l0.211,3.021h4.566L115.196,73.801z M109.521,76.822l-0.206-3.021h-4.545l0.186,3.021H109.521
	z M103.435,73.801h-4.546l0.158,3.021h4.565L103.435,73.801z M115.502,77.783h-4.571l0.215,3.059h4.593L115.502,77.783z
	 M109.795,80.842l-0.209-3.059h-4.571l0.187,3.059H109.795z M103.67,77.783h-4.572l0.16,3.059h4.594L103.67,77.783z M121.587,78.004
	h-4.606l0.236,3.811h-0.052l0.244,3.096h4.621L121.587,78.004z M111.213,81.814l0.217,3.096h4.621l-0.238-3.096H111.213z
	 M99.309,81.814l0.062,3.096h10.663l-0.278-3.096H99.309z M13.786,60.952H8.682L8.55,62.964h5.118L13.786,60.952z M93.946,62.964
	l-0.07-2.012h-5.148l0.058,2.012H93.946z M87.507,62.964l-0.057-2.012h-5.149l0.044,2.012H87.507z M81.064,62.964l-0.041-2.012
	h-5.149l0.028,2.012H81.064z M74.623,62.964l-0.024-2.012h-5.147l0.012,2.012H74.623z M68.174,60.952h-5.149l-0.002,2.012h5.16
	L68.174,60.952z M61.747,60.952h-5.149l-0.018,2.012h5.161L61.747,60.952z M55.321,60.952h-5.148l-0.034,2.012h5.163L55.321,60.952z
	 M48.896,60.952h-5.149l-0.048,2.012h5.161L48.896,60.952z M42.471,60.952h-5.151l-0.062,2.012h5.161L42.471,60.952z M36.045,60.952
	h-5.151l-0.077,2.012h5.162L36.045,60.952z M29.618,60.952h-5.149l-0.094,2.012h5.162L29.618,60.952z M23.193,60.952h-5.15
	l-0.108,2.012h5.161L23.193,60.952z M115.505,62.964h4.781l-0.132-2.012h-4.771L115.505,62.964z M109.628,62.964h4.78l-0.117-2.012
	h-4.771L109.628,62.964z M108.53,62.964l-0.104-2.012h-4.769l0.093,2.012H108.53z M118.98,57.929l-0.124-1.33h-4.56l0.112,1.33
	H118.98z M110.962,57.929l-0.11-1.33h-4.561l0.1,1.33H110.962z M102.441,57.929l-0.099-1.33h-4.561l0.087,1.33H102.441z
	 M102.562,60.952h-4.771l0.08,2.012h4.782L102.562,60.952z M80.817,69.982l0.073,2.998h4.521l-0.095-2.998H80.817z M79.562,72.98
	l-0.069-2.998h-4.499l0.047,2.998H79.562z M73.711,72.98l-0.043-2.998h-4.5l0.021,2.998H73.711z M63.339,72.98h4.52l-0.015-2.998
	h-4.501L63.339,72.98z M57.487,72.98h4.521l0.01-2.998h-4.501L57.487,72.98z M51.637,72.98h4.52l0.038-2.998h-4.501L51.637,72.98z
	 M45.785,72.98h4.521l0.062-2.998h-4.501L45.785,72.98z M44.544,69.982h-4.5l-0.109,2.998h4.52L44.544,69.982z M34.082,72.98h4.521
	l0.116-2.998h-4.502L34.082,72.98z M28.233,72.98h4.52l0.142-2.998h-4.5L28.233,72.98z M27.071,69.982h-4.502l-0.188,2.998h4.521
	L27.071,69.982z M21.244,69.982h-4.498L16.53,72.98h4.52L21.244,69.982z M15.024,69.982H7.939l-0.332,2.91h7.199L15.024,69.982z
	 M86.402,76.939L86.3,73.979h-4.531l0.082,2.961H86.402z M80.512,76.939l-0.076-2.961h-4.532l0.055,2.961H80.512z M74.57,73.979
	h-4.531l0.028,2.961h4.551L74.57,73.979z M68.705,73.979h-4.532l0.003,2.961h4.552L68.705,73.979z M62.839,73.979h-4.531
	l-0.026,2.961h4.552L62.839,73.979z M56.974,73.979h-4.53l-0.052,2.961h4.552L56.974,73.979z M51.11,73.979h-4.531l-0.08,2.961
	h4.552L51.11,73.979z M45.246,73.979h-4.533l-0.105,2.961h4.553L45.246,73.979z M39.381,73.979h-4.533l-0.133,2.961h4.553
	L39.381,73.979z M33.515,73.979h-4.532l-0.159,2.961h4.554L33.515,73.979z M27.649,73.979h-4.531l-0.187,2.961h4.552L27.649,73.979z
	 M21.784,73.979h-4.532l-0.213,2.961h4.554L21.784,73.979z M15.646,74.094H7.379l-0.252,2.875h8.303L15.646,74.094z M73.475,77.963
	l0.044,2.953h4.574l-0.063-2.953H73.475z M72.173,80.916l-0.038-2.953H67.58l0.017,2.953H72.173z M66.241,77.963h-4.554
	l-0.012,2.953h4.575L66.241,77.963z M60.347,77.963h-4.555l-0.039,2.953h4.576L60.347,77.963z M54.452,77.963h-4.555l-0.064,2.953
	h4.574L54.452,77.963z M48.559,77.963h-4.555l-0.094,2.953h4.576L48.559,77.963z M42.665,77.963h-4.556l-0.119,2.953h4.575
	L42.665,77.963z M36.769,77.963h-4.553l-0.148,2.953h4.577L36.769,77.963z M30.877,77.963h-4.556l-0.174,2.953h4.576L30.877,77.963z
	 M24.982,77.963h-4.555l-0.202,2.953h4.576L24.982,77.963z M19.088,77.963h-4.556l-0.228,2.953h4.575L19.088,77.963z M12.916,78.079
	H7.29l-0.256,2.866h5.653L12.916,78.079z M79.841,80.945h14.77l-0.136-2.866H79.771L79.841,80.945z M77.747,68.982h4.492
	l-0.08-3.006h-4.47L77.747,68.982z M76.375,65.977h-4.471l0.034,3.006h4.49L76.375,65.977z M66.119,65.977l0.009,3.006h4.489
	l-0.027-3.006H66.119z M60.335,65.977l-0.018,3.006h4.491l-0.003-3.006H60.335z M54.508,68.982h4.489l0.023-3.006h-4.47
	L54.508,68.982z M48.695,68.982h4.49l0.051-3.006h-4.47L48.695,68.982z M47.45,65.977h-4.469l-0.097,3.006h4.489L47.45,65.977z
	 M41.666,65.977h-4.471l-0.121,3.006h4.49L41.666,65.977z M31.264,68.982h4.489l0.128-3.006h-4.469L31.264,68.982z M25.452,68.982
	h4.491l0.154-3.006h-4.471L25.452,68.982z M19.644,68.982h4.488l0.18-3.006h-4.469L19.644,68.982z M18.526,65.977h-4.469
	l-0.227,3.006h4.49L18.526,65.977z M12.742,65.977H8.375l-0.252,3.006h4.388L12.742,65.977z M83.897,68.982h10.428l-0.026-2.918
	h-10.49L83.897,68.982z M86.75,70.087l0.103,2.448h1.066l0.138,4.611h6.374l-0.209-7.06H86.75z M6.607,84.91h7.188l0.23-2.973H6.864
	L6.607,84.91z M15.309,84.91h7.811l0.189-2.973h-7.781L15.309,84.91z M69.938,81.938l0.03,2.973h7.02l-0.058-2.973H69.938z
	 M78.791,81.938l0.066,2.973H86.5l-0.096-2.973H78.791z M88.074,81.938l0.105,2.973h6.798l-0.136-2.973H88.074z M24.866,81.938
	l-0.177,2.973h43.369l-0.016-2.973H24.866z"/>
<linearGradient id="XMLID_2_" gradientUnits="userSpaceOnUse" x1="-8.02" y1="70.0098" x2="128.0022" y2="70.0098">
	<stop  offset="0" style="stop-color:#262626"/>
	<stop  offset="0.0791" style="stop-color:#3B3B3B"/>
	<stop  offset="0.1951" style="stop-color:#535353"/>
	<stop  offset="0.3028" style="stop-color:#616161"/>
	<stop  offset="0.3933" style="stop-color:#666666"/>
	<stop  offset="0.5187" style="stop-color:#616161"/>
	<stop  offset="0.6708" style="stop-color:#525252"/>
	<stop  offset="0.836" style="stop-color:#3A3A3A"/>
	<stop  offset="1" style="stop-color:#1A1A1A"/>
</linearGradient>
<path style="fill:url(#XMLID_2_);" d="M120.425,65.072h-4.493l0.234,2.953h4.512L120.425,65.072z M114.612,65.072h-4.493
	l0.206,2.953h4.513L114.612,65.072z M104.305,65.073l0.18,2.952h4.514l-0.201-2.952H104.305z M102.983,65.073h-4.492l0.155,2.952
	h4.513L102.983,65.073z M120.758,68.965h-4.519l0.234,2.988h0.023l0.32,3.703h4.534L120.758,68.965z M114.91,68.965h-4.519
	l0.208,2.988h4.541L114.91,68.965z M109.266,71.953l-0.204-2.988h-4.519l0.183,2.988H109.266z M103.215,68.965h-4.52l0.156,2.988
	h4.538L103.215,68.965z M115.213,72.902h-4.545l0.211,3.024h4.566L115.213,72.902z M109.536,75.927l-0.206-3.024h-4.546l0.186,3.024
	H109.536z M103.447,72.902h-4.546l0.158,3.024h4.566L103.447,72.902z M115.521,76.889h-4.573l0.214,3.061h4.595L115.521,76.889z
	 M109.811,79.949l-0.209-3.061h-4.573l0.188,3.061H109.811z M103.684,76.889h-4.574l0.16,3.061h4.596L103.684,76.889z
	 M121.606,77.109h-4.607l0.236,3.812h-0.053l0.245,3.098h4.622L121.606,77.109z M111.229,80.922l0.217,3.098h4.622l-0.238-3.098
	H111.229z M99.32,80.922l0.062,3.098h10.668l-0.279-3.098H99.32z M13.769,60.045H8.662L8.53,62.059h5.12L13.769,60.045z
	 M93.957,62.059l-0.071-2.013h-5.149l0.057,2.013H93.957z M87.515,62.059l-0.057-2.013h-5.15l0.044,2.013H87.515z M81.07,62.059
	l-0.041-2.013h-5.15l0.027,2.013H81.07z M74.627,62.059l-0.024-2.013h-5.15l0.013,2.013H74.627z M68.175,60.045h-5.151l-0.002,2.013
	h5.162L68.175,60.045z M61.746,60.045h-5.151l-0.018,2.013h5.163L61.746,60.045z M55.318,60.045h-5.15l-0.033,2.013h5.164
	L55.318,60.045z M48.889,60.045h-5.149l-0.048,2.013h5.163L48.889,60.045z M42.463,60.045h-5.152l-0.062,2.013h5.162L42.463,60.045z
	 M36.035,60.045h-5.153l-0.077,2.013h5.164L36.035,60.045z M29.606,60.045h-5.152l-0.093,2.013h5.163L29.606,60.045z M23.18,60.045
	h-5.152l-0.109,2.013h5.164L23.18,60.045z M115.523,62.059h4.782l-0.133-2.013h-4.771L115.523,62.059z M109.643,62.059h4.783
	l-0.118-2.013h-4.771L109.643,62.059z M108.545,62.059l-0.104-2.013h-4.77l0.092,2.013H108.545z M119,57.331L118.876,56h-4.562
	l0.112,1.331H119z M110.979,57.331L110.869,56h-4.562l0.1,1.331H110.979z M102.456,57.331L102.357,56h-4.562l0.087,1.331H102.456z
	 M102.575,60.045h-4.771l0.079,2.013h4.783L102.575,60.045z M80.823,69.082l0.073,3h4.523l-0.096-3H80.823z M79.566,72.082l-0.068-3
	h-4.501l0.046,3H79.566z M73.714,72.082l-0.043-3H69.17l0.021,3H73.714z M63.338,72.082h4.521l-0.015-3h-4.503L63.338,72.082z
	 M57.485,72.082h4.522l0.01-3h-4.502L57.485,72.082z M51.632,72.082h4.521l0.038-3h-4.503L51.632,72.082z M45.779,72.082h4.521
	l0.062-3h-4.501L45.779,72.082z M44.537,69.082h-4.502l-0.11,3h4.522L44.537,69.082z M34.072,72.082h4.522l0.117-3h-4.504
	L34.072,72.082z M28.221,72.082h4.521l0.142-3h-4.502L28.221,72.082z M27.059,69.082h-4.504l-0.188,3h4.522L27.059,69.082z
	 M21.229,69.082h-4.5l-0.216,3h4.521L21.229,69.082z M15.007,69.082H7.92l-0.332,2.912h7.201L15.007,69.082z M86.41,76.044
	l-0.104-2.963h-4.532l0.082,2.963H86.41z M80.517,76.044l-0.075-2.963h-4.534l0.056,2.963H80.517z M74.573,73.081h-4.532
	l0.028,2.963h4.553L74.573,73.081z M68.707,73.081h-4.534l0.002,2.963h4.554L68.707,73.081z M62.838,73.081h-4.532l-0.026,2.963
	h4.554L62.838,73.081z M56.972,73.081h-4.532l-0.053,2.963h4.553L56.972,73.081z M51.105,73.081h-4.532l-0.08,2.963h4.554
	L51.105,73.081z M45.24,73.081h-4.535l-0.106,2.963h4.555L45.24,73.081z M39.372,73.081h-4.535l-0.133,2.963h4.555L39.372,73.081z
	 M33.505,73.081H28.97l-0.159,2.963h4.556L33.505,73.081z M27.637,73.081h-4.533l-0.187,2.963h4.554L27.637,73.081z M21.77,73.081
	h-4.534l-0.212,2.963h4.555L21.77,73.081z M15.628,73.196H7.359l-0.252,2.876h8.306L15.628,73.196z M73.479,77.068l0.043,2.955
	h4.576l-0.063-2.955H73.479z M72.175,80.023l-0.038-2.955h-4.556l0.017,2.955H72.175z M66.242,77.068h-4.556l-0.012,2.955h4.577
	L66.242,77.068z M60.346,77.068h-4.557l-0.039,2.955h4.578L60.346,77.068z M54.448,77.068h-4.556l-0.065,2.955h4.576L54.448,77.068z
	 M48.554,77.068h-4.557l-0.094,2.955h4.578L48.554,77.068z M42.657,77.068h-4.557l-0.119,2.955h4.576L42.657,77.068z M36.76,77.068
	h-4.556l-0.147,2.955h4.578L36.76,77.068z M30.865,77.068h-4.557l-0.175,2.955h4.577L30.865,77.068z M24.968,77.068h-4.555
	l-0.204,2.955h4.578L24.968,77.068z M19.072,77.068h-4.557l-0.229,2.955h4.578L19.072,77.068z M12.898,77.184H7.271l-0.256,2.868
	h5.654L12.898,77.184z M79.846,80.052H94.62l-0.136-2.868H79.776L79.846,80.052z M77.752,68.081h4.493l-0.08-3.008h-4.471
	L77.752,68.081z M76.379,65.073h-4.473l0.035,3.008h4.491L76.379,65.073z M66.12,65.073l0.008,3.008h4.491l-0.027-3.008H66.12z
	 M60.334,65.073l-0.018,3.008h4.492l-0.002-3.008H60.334z M54.504,68.081h4.491l0.023-3.008h-4.471L54.504,68.081z M48.689,68.081
	h4.492l0.051-3.008H48.76L48.689,68.081z M47.444,65.073h-4.471l-0.096,3.008h4.49L47.444,65.073z M41.658,65.073h-4.472
	l-0.122,3.008h4.492L41.658,65.073z M31.253,68.081h4.489l0.129-3.008H31.4L31.253,68.081z M25.438,68.081h4.493l0.154-3.008h-4.473
	L25.438,68.081z M19.627,68.081h4.491l0.18-3.008h-4.472L19.627,68.081z M18.511,65.073l-4.47-0.001l-0.227,3.009h4.491
	L18.511,65.073z M12.724,65.072H8.354l-0.251,3.009h4.389L12.724,65.072z M83.904,68.081h10.432l-0.027-2.921H83.816L83.904,68.081z
	 M86.758,69.086l0.103,2.551h1.067l0.138,4.614h6.376l-0.209-7.165H86.758z M6.588,84.02h7.191l0.229-2.975H6.845L6.588,84.02z
	 M15.292,84.02h7.812l0.19-2.975H15.51L15.292,84.02z M69.939,81.045l0.03,2.975h7.022l-0.058-2.975H69.939z M78.796,81.045
	l0.066,2.975h7.645l-0.096-2.975H78.796z M88.082,81.045l0.106,2.975h6.799l-0.136-2.975H88.082z M24.852,81.045l-0.176,2.975
	h43.385l-0.017-2.975H24.852z"/>
</svg>
